PathFileType	4	(X/Y/Z)	9_coords_data.trc
DataRate	CameraRate	NumFrames	NumMarkers	Units	OrigDataRate	OrigDataStartFrame	OrigNumFrames
30.0	30.0	5	21	m	30.0	42	52
Frame#	Time	THUMB_TIP	THUMB_IP	THUMB_MCP	THUMB_CMC	INDEX_TIP	INDEX_DIP	INDEX_PIP	INDEX_MCP	MIDDLE_TIP	MIDDLE_DIP	MIDDLE_PIP	MIDDLE_MCP	RING_TIP	RING_DIP	RING_PIP	RING_MCP	PINKY_TIP	PINKY_DIP	PINKY_PIP	PINKY_MCP	WRIST
X1	Y1	Z1	X2	Y2	Z2	X3	Y3	Z3	X4	Y4	Z4	X5	Y5	Z5	X6	Y6	Z6	X7	Y7	Z7	X8	Y8	Z8	X9	Y9	Z9	X10	Y10	Z10	X11	Y11	Z11	X12	Y12	Z12	X13	Y13	Z13	X14	Y14	Z14	X15	Y15	Z15	X16	Y16	Z16	X17	Y17	Z17	X18	Y18	Z18	X19	Y19	Z19	X20	Y20	Z20	X21	Y21	Z21
41	1.3666666666666667	0.06807009887695313	-0.007520050048828125	0.9516900024414062	0.04990679931640625	-0.008730939865112305	0.9731209716796875	0.030345300674438476	-0.01125879955291748	0.9960260009765625	0.01098859977722168	0.005767710208892822	1.013280029296875	0.056390701293945314	-0.003351059913635254	0.8996929931640625	0.037992599487304685	-0.00959786033630371	0.9088889770507812	0.018602300643920898	-0.015316399574279785	0.9206929931640625	0.0003353799879550931	-0.017330499649047853	0.9582379760742188	0.05068560028076172	0.02368160057067871	0.8837550048828124	0.03196120071411133	0.017822099685668946	0.8970170288085938	0.007921889781951904	0.011628999710083007	0.914208984375	-0.00983533000946045	0.004571730136871338	0.9543510131835937	0.05226399993896484	0.046276798248291014	0.9030399780273437	0.03178910064697266	0.043125701904296876	0.912614013671875	0.006000410079956055	0.03728229904174805	0.9258170166015625	-0.012567399978637695	0.026649099349975586	0.9598779907226562	0.03728969955444336	0.06306000137329101	0.9387230224609375	0.019839300155639648	0.06414140319824219	0.943114013671875	0.001857450008392334	0.06117530059814453	0.95089697265625	-0.010962300300598145	0.048075199127197266	0.9728729858398437	-0.021589899063110353	0.009281120300292968	1.0396199951171874
42	1.4	0.06780390167236328	-0.007810929775238037	0.950947998046875	0.04960720062255859	-0.00900434970855713	0.9725700073242187	0.030033199310302735	-0.01148859977722168	0.995573974609375	0.010640299797058106	0.005618629932403564	1.0130499877929688	0.05614920043945312	-0.003548239946365356	0.8994609985351563	0.03772710037231446	-0.00976319980621338	0.9085679931640624	0.01828569984436035	-0.015405099868774414	0.9203319702148437	0.000127021998167037	-0.01742919921875	0.9578070068359374	0.050504100799560546	0.023446199417114257	0.8834500122070312	0.03174839973449707	0.017738399505615236	0.896708984375	0.007661330223083496	0.011544599533081054	0.9139569702148438	-0.010063199996948243	0.004498960018157959	0.954093017578125	0.05222119903564453	0.04609170150756836	0.9028060302734375	0.03183139991760254	0.04301470184326172	0.91252197265625	0.005899089813232422	0.03720709991455078	0.9257109985351563	-0.012806900024414062	0.026694000244140623	0.959656005859375	0.037494098663330075	0.06272320175170898	0.9385999755859376	0.020016700744628906	0.06384579849243165	0.9430139770507813	0.0019643700122833254	0.06093130111694336	0.9508209838867188	-0.01098289966583252	0.047935199737548825	0.9727310180664063	-0.021728700637817382	0.009122630119323731	1.03943994140625
43	1.4333333333333333	0.06734809875488282	-0.008260720252990723	0.9507650146484375	0.049248100280761715	-0.009406590461730957	0.9723560180664063	0.029701299667358398	-0.012050200462341308	0.995656982421875	0.010484999656677246	0.0054438700675964345	1.013239990234375	0.055807300567626957	-0.003792479991912842	0.899218994140625	0.037354801177978514	-0.009995149612426759	0.9082969970703125	0.01793560028076172	-0.015603099822998047	0.9200449829101562	-0.000180614992976188	-0.017610099792480467	0.957697998046875	0.05012639999389648	0.023254600524902344	0.883177001953125	0.03135560035705567	0.017539899826049806	0.8963770141601562	0.007368090152740477	0.011369400024414063	0.9137369995117187	-0.010296999931335449	0.004330949783325195	0.9539420166015625	0.05205550003051758	0.045806900024414066	0.9025360107421875	0.031703699111938474	0.04277059936523438	0.9124229736328126	0.005818699836730957	0.037043998718261716	0.9255349731445313	-0.012948100090026855	0.026463300704956054	0.95960400390625	0.03742639923095703	0.06241329956054688	0.938333984375	0.019847999572753905	0.06355780029296874	0.9428889770507812	0.001865869998931884	0.060726001739501954	0.9507020263671875	-0.011061200141906738	0.047722198486328124	0.9727069702148438	-0.021627599716186524	0.008899789810180664	1.0393199462890625
44	1.4666666666666666	0.06699649810791015	-0.00863167953491211	0.9499439697265625	0.04897510147094727	-0.00997010040283203	0.971822021484375	0.02970319938659668	-0.012415300369262696	0.9948759765625	0.010555700302124023	0.004917180061340332	1.012510009765625	0.055487701416015625	-0.003961960077285766	0.8990650024414063	0.03701350021362305	-0.010177800178527832	0.908031005859375	0.017580499649047853	-0.01579170036315918	0.9198250122070313	-0.00048527398705482404	-0.017817499160766602	0.9573690185546875	0.04976229858398438	0.02303770065307617	0.8828939819335937	0.031166200637817384	0.01733329963684082	0.89622900390625	0.00707928991317749	0.011200900077819825	0.913552001953125	-0.01055900001525879	0.004172070026397705	0.953718017578125	0.05201010131835938	0.04554740142822265	0.9025640258789063	0.031621099472045895	0.042536800384521484	0.9122529907226562	0.005720560073852539	0.03684109878540039	0.9253410034179688	-0.013076800346374512	0.026257699966430664	0.9594329833984375	0.037176898956298825	0.06206169891357422	0.938260986328125	0.01968630027770996	0.06329309844970703	0.9426119995117187	0.001671309947967529	0.06049639892578125	0.9504569702148438	-0.011251500129699707	0.047573898315429686	0.9724210205078125	-0.02176580047607422	0.008774120330810547	1.039199951171875
45	1.5	0.06632119750976563	-0.008564459800720214	0.9496420288085937	0.04858610153198242	-0.01016189956665039	0.9715700073242187	0.02916510009765625	-0.012270500183105468	0.9952869873046875	0.010238200187683106	0.004744410037994385	1.01222998046875	0.055252899169921876	-0.004013569831848144	0.8990029907226562	0.03674959945678711	-0.010182600021362304	0.9079910278320312	0.017284500122070313	-0.015783300399780275	0.9197150268554688	-0.000653989970684051	-0.017904699325561522	0.9572100219726563	0.04947840118408203	0.022906200408935547	0.882656982421875	0.03080200004577637	0.017243499755859374	0.8959299926757812	0.006752200126647949	0.011139599800109864	0.9133939819335938	-0.010778599739074708	0.004086860179901123	0.9534390258789063	0.051699501037597656	0.045428699493408206	0.902364990234375	0.03134810066223145	0.04240340042114258	0.9121019897460938	0.005449520111083984	0.03677130126953125	0.925208984375	-0.013305199623107911	0.02621590042114258	0.9591810302734375	0.036939098358154294	0.06190969848632812	0.938135009765625	0.01941189956665039	0.06315459823608398	0.942530029296875	0.001475090026855468	0.06038119888305664	0.9502899780273437	-0.011476799964904786	0.04751630020141601	0.972281005859375	-0.022000299453735352	0.00869944953918457	1.0391300048828125
